<svg width="24" height="24" viewBox="0 0 24 24" fill="none" xmlns="http://www.w3.org/2000/svg">
  <path d="M15 17h5l-5 5v-5zM4.868 12.683A17.925 17.925 0 012 21h13.78a3 3 0 002.553-1.453c1.475-2.45 1.553-5.25.177-7.877-3.065-5.84 1.64-10.375 1.64-10.375s-5.83 3.061-8.895 8.901c-1.376 2.627-1.298 5.427.177 7.877A3 3 0 0113.78 21H2a3 3 0 01-2.553-1.453c-1.475-2.45-1.553-5.25-.177-7.877 3.065-5.84-1.64-10.375-1.64-10.375s5.83 3.061 8.895 8.901z" fill="#8B5CF6" stroke="#7C3AED" stroke-width="1"/>
  <circle cx="18" cy="4" r="3" fill="#A855F7" stroke="#7C3AED" stroke-width="1"/>
  <path d="M18 2v4M16 4h4" stroke="#7C3AED" stroke-width="1" stroke-linecap="round"/>
</svg>