<svg width="32" height="32" viewBox="0 0 32 32" xmlns="http://www.w3.org/2000/svg">
  <defs>
    <linearGradient id="lotusGradientDark" x1="0%" y1="0%" x2="100%" y2="100%">
      <stop offset="0%" style="stop-color:#ec4899;stop-opacity:1" />
      <stop offset="50%" style="stop-color:#8b5cf6;stop-opacity:1" />
      <stop offset="100%" style="stop-color:#06b6d4;stop-opacity:1" />
    </linearGradient>
    <filter id="glow">
      <feGaussianBlur stdDeviation="1" result="coloredBlur"/>
      <feMerge>
        <feMergeNode in="coloredBlur"/>
        <feMergeNode in="SourceGraphic"/>
      </feMerge>
    </filter>
  </defs>

  <!-- Lotus flower petals -->
  <g transform="translate(16, 16)">
    <!-- Outer petals -->
    <ellipse cx="0" cy="-8" rx="3" ry="6" fill="url(#lotusGradientDark)" opacity="0.9" transform="rotate(0)"/>
    <ellipse cx="5.6" cy="-4.8" rx="3" ry="6" fill="url(#lotusGradientDark)" opacity="0.9" transform="rotate(45)"/>
    <ellipse cx="5.6" cy="4.8" rx="3" ry="6" fill="url(#lotusGradientDark)" opacity="0.9" transform="rotate(135)"/>
    <ellipse cx="0" cy="8" rx="3" ry="6" fill="url(#lotusGradientDark)" opacity="0.9" transform="rotate(180)"/>
    <ellipse cx="-5.6" cy="4.8" rx="3" ry="6" fill="url(#lotusGradientDark)" opacity="0.9" transform="rotate(225)"/>
    <ellipse cx="-5.6" cy="-4.8" rx="3" ry="6" fill="url(#lotusGradientDark)" opacity="0.9" transform="rotate(315)"/>

    <!-- Inner petals -->
    <ellipse cx="0" cy="-6" rx="2" ry="4" fill="url(#lotusGradientDark)" opacity="1" transform="rotate(0)"/>
    <ellipse cx="4.2" cy="-3.6" rx="2" ry="4" fill="url(#lotusGradientDark)" opacity="1" transform="rotate(45)"/>
    <ellipse cx="4.2" cy="3.6" rx="2" ry="4" fill="url(#lotusGradientDark)" opacity="1" transform="rotate(135)"/>
    <ellipse cx="0" cy="6" rx="2" ry="4" fill="url(#lotusGradientDark)" opacity="1" transform="rotate(180)"/>
    <ellipse cx="-4.2" cy="3.6" rx="2" ry="4" fill="url(#lotusGradientDark)" opacity="1" transform="rotate(225)"/>
    <ellipse cx="-4.2" cy="-3.6" rx="2" ry="4" fill="url(#lotusGradientDark)" opacity="1" transform="rotate(315)"/>

    <!-- Lotus center -->
    <circle cx="0" cy="0" r="3" fill="url(#lotusGradientDark)" filter="url(#glow)"/>
  </g>
</svg>
