<?xml version="1.0" encoding="UTF-8"?>
<svg version="1.1" xmlns="http://www.w3.org/2000/svg" width="398" height="414">
<path d="M0 0 C5.41478305 3.3891799 10.1163807 7.82232305 14.95141602 11.9753418 C24.39675827 20.0234872 24.39675827 20.0234872 36.078125 23.3359375 C44.24311053 22.41969623 52.32600782 19.44775237 59.91015625 16.3828125 C66.70200387 13.80760157 74.6141054 13.70729998 81.328125 16.46484375 C87.70680097 23.00298662 91.38706168 30.97527835 94.953125 39.27734375 C99.30112098 50.32262743 99.30112098 50.32262743 108.38671875 57.2421875 C113.81355946 59.22290975 119.16778705 59.99562573 124.890625 60.58984375 C143.37934973 62.57856848 143.37934973 62.57856848 148.828125 68.02734375 C148.828125 68.68734375 148.828125 69.34734375 148.828125 70.02734375 C149.488125 70.02734375 150.148125 70.02734375 150.828125 70.02734375 C154.99847116 79.2021053 153.86023151 89.14540638 153.61328125 98.98046875 C153.51579392 106.93897964 153.7803882 114.12243098 158.828125 120.58984375 C164.82311904 125.4607764 171.07467734 129.9249646 177.578125 134.08984375 C182.2509071 137.15740754 187.28183784 140.93476944 189.828125 146.02734375 C191.35037676 157.73455828 188.50372211 165.12054179 182.85009766 175.16552734 C179.00031439 182.1790121 175.65718334 188.96085679 176.828125 197.02734375 C178.64321316 203.24326017 181.53985651 208.26282827 185.23828125 213.5234375 C190.06775353 221.1295597 194.57726239 229.88786756 193.828125 239.02734375 C190.6503105 249.14777211 181.75639032 255.34386992 173.44140625 261.16796875 C168.42600074 264.44736316 168.42600074 264.44736316 164.828125 269.02734375 C164.168125 269.02734375 163.508125 269.02734375 162.828125 269.02734375 C160.21897943 276.94322608 159.73274829 283.54069995 160.484375 291.80859375 C160.91980707 296.71193744 161.06610868 301.60655683 161.140625 306.52734375 C161.18473511 307.78224609 161.18473511 307.78224609 161.22973633 309.0625 C161.28508131 314.63501306 160.57343615 318.75307588 156.828125 323.02734375 C150.53731023 328.91033598 141.84265561 329.93164646 133.703125 331.58984375 C131.67670083 332.00582454 129.65194817 332.42666257 127.62991333 332.86351013 C125.80137588 333.25834765 123.96888673 333.63475397 122.13623047 334.01000977 C117.45144295 335.45071158 113.91621944 337.45565178 111.10546875 341.515625 C108.4411132 347.13174471 106.19465322 352.72354819 104.328125 358.65234375 C101.71185129 366.8281991 98.50725324 375.37945034 90.828125 380.02734375 C80.55635333 383.17706792 70.19635193 379.66420121 60.19726562 377.07226562 C51.06171981 374.80835485 45.36610005 374.52308211 37.0859375 379.37890625 C33.8173255 381.76533231 31.38815703 384.65852317 28.80078125 387.75 C23.44887531 393.92853696 16.06356586 401.00361465 7.734375 402.37109375 C-0.23459989 402.88855965 -5.03179738 399.86211815 -11.171875 395.02734375 C-14.01301034 392.53201742 -16.78690304 389.97406922 -19.5625 387.40625 C-26.16861505 381.38360918 -30.95989359 377.97249416 -40.1875 378.3515625 C-46.32698939 379.16301222 -52.15663519 381.51797988 -57.98901367 383.51171875 C-66.68759755 386.40001113 -74.85883668 388.20948449 -83.671875 384.58984375 C-90.347884 377.74693453 -93.72233221 369.85403581 -97.10498047 361.03100586 C-99.61331001 354.6860634 -102.66531522 348.47823149 -108.390625 344.4765625 C-115.78600375 342.00721514 -123.29413072 341.03389152 -131.02734375 340.2409668 C-139.20736501 339.32406448 -147.29170338 338.03617773 -152.75390625 331.33984375 C-156.69155438 324.57456289 -155.95073066 316.60743837 -155.859375 309.02734375 C-155.27040895 293.8800581 -155.27040895 293.8800581 -161.234375 280.40234375 C-166.20154383 276.38633491 -171.45860005 272.80793044 -176.796875 269.3046875 C-182.8608788 265.24661179 -188.83378192 260.70352991 -192.171875 254.02734375 C-193.51937965 243.49812317 -190.43900824 235.73345698 -185.734375 226.58984375 C-184.80980791 224.74530699 -183.89283337 222.89743114 -182.98338318 221.0453949 C-182.16240148 219.38084202 -181.32119838 217.72630673 -180.47875977 216.07250977 C-177.97407459 210.23635468 -177.95276735 206.31183538 -180.09375 200.51171875 C-183.31686824 193.08453324 -187.60618844 186.17863559 -191.875 179.31640625 C-195.48873832 172.93794043 -195.94281615 167.27221375 -195.171875 160.02734375 C-193.671875 156.77734375 -193.671875 156.77734375 -191.171875 154.02734375 C-190.635625 153.42792969 -190.099375 152.82851562 -189.546875 152.2109375 C-184.84600368 147.20646825 -179.57399078 143.19635729 -174.00390625 139.203125 C-168.7667254 135.17952537 -163.4404119 130.73905719 -162.171875 124.02734375 C-162.07843039 121.9248401 -162.04192888 119.81941711 -162.046875 117.71484375 C-162.04429687 116.62558594 -162.04171875 115.53632812 -162.0390625 114.4140625 C-162.11298491 111.01641362 -162.11298491 111.01641362 -162.6640625 107.640625 C-163.2358035 103.57246786 -163.39252524 99.62897298 -163.421875 95.52734375 C-163.4425 94.80675781 -163.463125 94.08617188 -163.484375 93.34375 C-163.53170879 86.79985379 -162.18759162 82.0899375 -157.484375 77.27734375 C-150.12342331 71.76138512 -140.46231713 70.7188065 -131.66015625 69.09765625 C-125.39257664 67.83917263 -120.15910204 66.16255805 -115.171875 62.02734375 C-114.676875 61.03734375 -114.676875 61.03734375 -114.171875 60.02734375 C-113.511875 60.02734375 -112.851875 60.02734375 -112.171875 60.02734375 C-112.07390625 59.38152344 -111.9759375 58.73570313 -111.875 58.0703125 C-108.92003428 45.28187751 -103.30919007 28.62989384 -92.171875 21.02734375 C-85.29233295 17.58757272 -76.68906353 20.51495667 -69.734375 22.46484375 C-55.00508742 26.67606574 -55.00508742 26.67606574 -40.70727539 22.63183594 C-36.5789638 20.01929249 -33.45963522 16.66806555 -30.171875 13.08984375 C-12.2590735 -5.49012464 -12.2590735 -5.49012464 0 0 Z M-41.171875 68.02734375 C-42.4403125 68.38828125 -43.70875 68.74921875 -45.015625 69.12109375 C-79.72404288 80.26599857 -108.44928691 107.04492934 -125.12402344 138.97607422 C-135.72973299 159.73776379 -140.61369405 181.37517577 -140.484375 204.71484375 C-140.48221985 205.41766479 -140.4800647 206.12048584 -140.47784424 206.84460449 C-140.42396958 217.81697204 -139.87532094 228.35675621 -137.171875 239.02734375 C-136.88981201 240.19185059 -136.88981201 240.19185059 -136.60205078 241.37988281 C-127.43603581 278.23353408 -103.55747726 309.50083057 -71.171875 329.02734375 C-43.14389307 345.22058189 -9.20325246 352.93607222 22.828125 346.02734375 C23.46492187 345.8984375 24.10171875 345.76953125 24.7578125 345.63671875 C49.57094692 340.5804574 70.32356277 330.12873915 89.828125 314.02734375 C90.82070313 313.20878906 91.81328125 312.39023437 92.8359375 311.546875 C98.51255128 306.64276676 103.61260858 301.2564169 107.828125 295.02734375 C107.828125 294.36734375 107.828125 293.70734375 107.828125 293.02734375 C108.488125 293.02734375 109.148125 293.02734375 109.828125 293.02734375 C111.30714818 291.03587893 112.64138955 289.06389751 113.953125 286.96484375 C114.35200928 286.32925537 114.75089355 285.69366699 115.16186523 285.03881836 C116.39891533 283.04371064 117.61678822 281.0381529 118.828125 279.02734375 C119.18245605 278.44500977 119.53678711 277.86267578 119.90185547 277.26269531 C129.40094541 261.40501225 135.35089178 243.3076165 137.828125 225.02734375 C137.95703125 224.19203125 138.0859375 223.35671875 138.21875 222.49609375 C141.66235487 196.03470898 136.6397907 169.21344035 125.828125 145.02734375 C125.31636719 143.88007813 124.80460937 142.7328125 124.27734375 141.55078125 C107.93728189 106.99876501 78.37080649 82.90263662 43.140625 69.33984375 C16.09691454 60.29532486 -13.84070324 59.8653044 -41.171875 68.02734375 Z " fill="#FEB531" transform="translate(198.171875,4.97265625)"/>
<path d="M0 0 C3.77797572 2.02891288 7.04939276 4.09878553 9 8 C8.6875 11.25 8.6875 11.25 8 14 C8.99 14.495 8.99 14.495 10 15 C10.061875 14.113125 10.12375 13.22625 10.1875 12.3125 C11.34706765 7.58503189 13.97062373 5.42056339 17.875 2.6875 C22.36571874 1.23462041 25.99511124 1.58287636 30.3125 3.375 C33 5 33 5 35 7 C34.6171896 11.0577902 33.84527244 15.01514422 33 19 C33.680625 19.185625 34.36125 19.37125 35.0625 19.5625 C40.40102128 22.17496786 44.34037271 26.42472057 47.0625 31.6875 C49.2752749 35.47063128 51.34147654 36.68542394 55 39 C60.00272879 44.14986787 61.14979976 47.39094144 61.109375 54.39453125 C61 57 61 57 60.375 60.875 C59.95366905 64.38609124 60.08365789 65.13086982 62 68 C63.90251653 69.55030137 65.86953765 71.02288902 67.875 72.4375 C77.34613238 79.12779621 77.34613238 79.12779621 78.63671875 84.796875 C78.76011079 91.97259686 77.61737129 95.73451373 72.62890625 100.96484375 C70.74777345 103.31513198 70.36483831 105.04532352 70 108 C71.65 108 73.3 108 75 108 C75.66 106.35 76.32 104.7 77 103 C77.99 103.33 78.98 103.66 80 104 C80.3125 106.6875 80.3125 106.6875 80 110 C76.95676344 113.60383277 74.83712279 115.76037529 70.125 116.375 C67 116 67 116 64.6875 113.9375 C62.74834907 110.56194098 62.30236682 107.85517691 62 104 C60.94232116 108.71243047 60.36628811 111.84573906 62.75 116.1875 C66.01700487 119.50013343 70.17253771 121.38172991 74.26953125 123.48828125 C79.13758093 126.18346755 82.91763846 129.37645769 86 134 C86.77538152 141.49155379 85.80106403 148.73142017 84 156 C81.36 156 78.72 156 76 156 C75.87044922 154.78763672 75.87044922 154.78763672 75.73828125 153.55078125 C74.91138024 146.87354644 74.91138024 146.87354644 71.875 141 C68.40821309 138.58832215 64.85432202 136.71196933 61 135 C61.61488281 135.4846875 62.22976562 135.969375 62.86328125 136.46875 C69.46208645 141.94144331 72.44625041 145.92396213 73.375 154.4375 C72.45646072 163.16362318 69.68350674 168.30528604 63 174 C63.48984375 174.41765625 63.9796875 174.8353125 64.484375 175.265625 C66.58648747 177.67113514 66.28612045 179.77474772 66.171875 182.859375 C65.92455937 185.93957872 65.50804729 188.95171624 65 192 C65.66 192 66.32 192 67 192 C67.1875 195.375 67.1875 195.375 67 199 C63.30513897 201.46324069 61.36706908 201.38991688 57 201 C55.296875 199.78515625 55.296875 199.78515625 54 198 C53.671875 195.6953125 53.671875 195.6953125 53.75 193.125 C53.77578125 192.24328125 53.8015625 191.3615625 53.828125 190.453125 C54.00703956 187.89952634 54.33976533 185.47588001 55 183 C53.68 183 52.36 183 51 183 C50.86722656 184.05960938 50.73445313 185.11921875 50.59765625 186.2109375 C50.41946125 187.59898279 50.2410654 188.98700231 50.0625 190.375 C49.97548828 191.07367188 49.88847656 191.77234375 49.79882812 192.4921875 C49.11328125 197.7734375 49.11328125 197.7734375 48 200 C44.7 200 41.4 200 38 200 C38.64910639 191.3403306 39.944801 182.91526421 41.5 174.375 C41.83837891 172.45880859 41.83837891 172.45880859 42.18359375 170.50390625 C43.87085024 161.12914976 43.87085024 161.12914976 45 160 C46.33156473 159.92825621 47.6666761 159.91607158 49 159.9375 C49.721875 159.94652344 50.44375 159.95554688 51.1875 159.96484375 C52.0846875 159.98224609 52.0846875 159.98224609 53 160 C53.33 160 53.66 160 54 160 C42.87464558 160.2676777 42.87464558 160.2676777 38.68359375 157.43359375 C34.76409291 153.10775157 32.68308705 148.54428676 31 143 C30.67128906 143.51949219 30.34257812 144.03898438 30.00390625 144.57421875 C25.55037188 151.10365532 20.46849373 154.51050209 13 157 C5.82409617 157.73599014 -0.27746127 156.75617584 -6.13671875 152.41796875 C-9.85925486 149.25966177 -13.11887593 145.9615456 -16 142 C-16.20625 143.175625 -16.4125 144.35125 -16.625 145.5625 C-17.84807545 150.44612751 -20.27729096 153.66623071 -24 157 C-27.78911016 159.13744676 -31.70788946 159.49504582 -36 160 C-36 161.32 -36 162.64 -36 164 C-33.69 163.67 -31.38 163.34 -29 163 C-28.505 165.475 -28.505 165.475 -28 168 C-30.88087546 170.40072955 -33.56404834 172.47291037 -37 174 C-36.01 174.99 -36.01 174.99 -35 176 C-34.85502015 178.58064129 -34.81322455 181.04943884 -34.875 183.625 C-34.88402344 184.33140625 -34.89304688 185.0378125 -34.90234375 185.765625 C-34.92592397 187.51056098 -34.96179539 189.25532295 -35 191 C-34.34 191.33 -33.68 191.66 -33 192 C-32.8125 195.375 -32.8125 195.375 -33 199 C-36.7205836 201.48038907 -38.59796571 201.46337203 -43 201 C-45.23828125 199.4296875 -45.23828125 199.4296875 -47 197 C-47.171875 193.546875 -47.171875 193.546875 -46.75 189.75 C-46.62109375 188.48671875 -46.4921875 187.2234375 -46.359375 185.921875 C-46.18148437 184.47554688 -46.18148437 184.47554688 -46 183 C-46.99 183.33 -47.98 183.66 -49 184 C-49.99 189.28 -50.98 194.56 -52 200 C-55.3 200 -58.6 200 -62 200 C-62.35291169 192.87842304 -61.1761305 186.17010735 -59.91870117 179.17114258 C-59.56040487 177.17583244 -59.21201362 175.17898152 -58.86523438 173.18164062 C-57.15295252 163.45885755 -57.15295252 163.45885755 -56 160 C-52.66666667 160 -49.33333333 160 -46 160 C-49.63 159.67 -53.26 159.34 -57 159 C-57.60363479 151.03202077 -57.60363479 151.03202077 -55.0625 146.6875 C-51.74088435 143.24108376 -47.41740863 141.63607727 -43 140 C-48.70054012 137.51249158 -53.74359895 135.91834324 -60 137 C-62.71107713 138.37716666 -62.71107713 138.37716666 -64 141 C-64.58342353 144.54230809 -64.58342353 144.54230809 -64 148 C-63.505 148.495 -63.01 148.99 -62.5 149.5 C-61 151 -61 151 -60.8125 154.6875 C-60.874375 155.780625 -60.93625 156.87375 -61 158 C-62.32 158.33 -63.64 158.66 -65 159 C-65.37125 157.824375 -65.37125 157.824375 -65.75 156.625 C-67.20924503 153.56058543 -68.05014956 153.38274239 -71 152 C-73.96475636 147.32157241 -73.55875873 142.34003593 -73 137 C-71.52513693 130.82677073 -69.09253538 126.02420114 -64.015625 122.1171875 C-60.54473583 120.19340009 -56.90368255 119.5134095 -53 119 C-53.60328125 118.78085938 -54.2065625 118.56171875 -54.828125 118.3359375 C-60.20991262 116.20058306 -63.51044601 114.52031537 -66 109 C-66.25 105.125 -66.25 105.125 -66 102 C-64.68 102 -63.36 102 -62 102 C-61.608125 101.13375 -61.21625 100.2675 -60.8125 99.375 C-59.40787604 96.75949332 -58.28088239 95.04052434 -56.375 92.875 C-54.28811246 90.34876771 -53.36526764 89.16565291 -53 86 C-52.01 86 -51.02 86 -50 86 C-50.33 85.319375 -50.66 84.63875 -51 83.9375 C-52.42212261 79.76001484 -52.9925924 76.2067456 -51.125 72.0546875 C-48.88521057 68.29714602 -46.36348634 65.3682103 -43.25 62.3125 C-39.23316457 57.92341474 -39.32658599 53.87143043 -39.140625 48.11328125 C-38.95096611 43.91444419 -38.38426586 40.51206145 -36 37 C-34.46736074 35.69330933 -32.90162808 34.42487446 -31.3125 33.1875 C-27.81592524 30.37389937 -27.81592524 30.37389937 -26.51953125 26.2265625 C-26.58871205 24.31512274 -26.70821449 22.40470561 -26.8828125 20.5 C-27.03496503 17.2540794 -26.04806688 15.47474748 -24 13 C-24.825 12.62875 -25.65 12.2575 -26.5 11.875 C-27.325 11.25625 -28.15 10.6375 -29 10 C-29.3125 6.8125 -29.3125 6.8125 -29 4 C-28.01 4 -27.02 4 -26 4 C-25.505 4.99 -25.505 4.99 -25 6 C-22.67793475 6.70491267 -20.34406932 7.37212429 -18 8 C-17 9 -17 9 -16.8125 11.75 C-16.99882627 14.97965527 -17.77173334 17.05216001 -19 20 C-18.505 20.99 -18.505 20.99 -18 22 C-17.443125 21.071875 -16.88625 20.14375 -16.3125 19.1875 C-14.04212145 16.0580593 -12.40491897 14.70245949 -9 13 C-9.495 12.01 -9.495 12.01 -10 11 C-10.9590625 11.2784375 -10.9590625 11.2784375 -11.9375 11.5625 C-12.618125 11.706875 -13.29875 11.85125 -14 12 C-15 11 -15 11 -15.4375 7.1875 C-15.37333728 3.62005285 -15.17966668 3.18888036 -12.5625 0.4375 C-7.96619359 -1.41714995 -4.73556126 -1.33240702 0 0 Z M6 17 C7 19 7 19 7 19 Z M11 18 C11.54470849 22.44481368 11.54470849 22.44481368 12.51953125 26.8046875 C13.18486933 29.84468749 13.20987654 32.76543153 13.25 35.875 C13.28867188 37.66550781 13.28867188 37.66550781 13.328125 39.4921875 C12.971478 43.3049138 11.91012905 45.71256738 10 49 C9.01 49 8.02 49 7 49 C3.36933772 42.34378582 2.82194279 35.23580984 4.4921875 27.8125 C4.77449219 26.9153125 4.77449219 26.9153125 5.0625 26 C6.03451217 22.88956106 5.91774783 21.97786707 5 19 C0.00359773 31.19750967 0.00359773 31.19750967 1 44 C3.05151309 48.34481166 4.97603319 51.31735546 9 54 C13.95231813 48.51229613 17.65376745 43.15730866 17.36328125 35.390625 C16.48699446 29.62409258 15.20404156 22.20404156 11 18 Z M-17.484375 61.390625 C-17.90203125 62.00421875 -18.3196875 62.6178125 -18.75 63.25 C-19.17796875 63.85328125 -19.6059375 64.4565625 -20.046875 65.078125 C-21.29619853 67.23971292 -21.29619853 67.23971292 -21 71 C-21.61674772 72.68577711 -22.28272222 74.35448038 -23 76 C-23.33 76.99 -23.66 77.98 -24 79 C-23.14019531 78.85820312 -22.28039062 78.71640625 -21.39453125 78.5703125 C-11.77571796 77.37451674 -5.24876602 78.88259715 3 84 C4.86328125 85.703125 4.86328125 85.703125 6 87 C6 86.01 6 85.02 6 84 C6.886875 84.226875 7.77375 84.45375 8.6875 84.6875 C12.76423722 85.07209785 13.65587569 84.25533965 17 82 C23.22894691 78.47717093 27.96001845 77.25860921 35 79 C35.66 79.33 36.32 79.66 37 80 C37 80.66 37 81.32 37 82 C36.3709375 82.00257813 35.741875 82.00515625 35.09375 82.0078125 C28.06496306 82.32537817 24.16431674 84.28287269 19 89 C19.66 89.99 20.32 90.98 21 92 C27.16260282 92.63751064 31.34849787 91.42207234 37 89 C36.505 90.485 36.505 90.485 36 92 C36.33 92.99 36.66 93.98 37 95 C30.02526182 98.41619829 24.66604085 98.49581285 17 97 C14.97944157 101.39251833 13.59104765 105.15340923 13 110 C12.01 110 11.02 110 10 110 C10 102.74 10 95.48 10 88 C8.68 88.33 7.36 88.66 6 89 C6 95.6 6 102.2 6 109 C4.515 108.505 4.515 108.505 3 108 C2.04501962 105.45338565 1.47470072 102.89398398 0.84375 100.25 C0.5653125 99.5075 0.286875 98.765 0 98 C-4.26253148 96.57915617 -8.31128002 96.98043733 -12.7734375 97.0625 C-15.66974642 97.00639716 -18.19198168 96.67308304 -21 96 C-20.34 93.69 -19.68 91.38 -19 89 C-17.96875 89.495 -16.9375 89.99 -15.875 90.5 C-12.44709291 91.95720747 -9.75806426 92.51246331 -6 92 C-4.33556758 90.5339034 -4.33556758 90.5339034 -3 89 C-10.82880075 83.31107145 -15.26656278 81.52280776 -25 83 C-24.61222996 93.29596313 -23.54454341 102.96933613 -21 113 C-20.78472656 113.928125 -20.56945312 114.85625 -20.34765625 115.8125 C-18.75576429 121.99167827 -16.13632329 126.19292158 -12 131 C-11.36578125 131.78890625 -10.7315625 132.5778125 -10.078125 133.390625 C-5.56645498 138.81162387 -1.87705156 142.46329098 5.44921875 143.26953125 C11.78959026 143.52542068 16.01030897 142.62599666 20.89453125 138.3359375 C23.02065252 136.2951863 25.01830745 134.18101172 27 132 C27.63550781 131.31808594 28.27101562 130.63617188 28.92578125 129.93359375 C39.83123552 117.25337605 40.97787272 96.97274193 41.2331543 80.85327148 C40.8573522 77.8661367 38.95240021 76.18905478 37 74 C36.25082896 70.87845398 36 68.2046409 36 65 C34.82528576 62.04881131 34.82528576 62.04881131 32 60 C25.32533041 59.41764628 18.79299705 61.4315323 12.5078125 63.4765625 C7.17017507 64.59064882 2.76666795 62.14967378 -2 60 C-2 60.66 -2 61.32 -2 62 C-2.67546875 61.855625 -3.3509375 61.71125 -4.046875 61.5625 C-5.38492188 61.2840625 -5.38492188 61.2840625 -6.75 61 C-7.63171875 60.814375 -8.5134375 60.62875 -9.421875 60.4375 C-13.77560721 59.50835276 -13.77560721 59.50835276 -17.484375 61.390625 Z M48 66 C49 68 49 68 49 68 Z M71 83 C71 84.98 71 86.96 71 89 C71.33 89 71.66 89 72 89 C72 87.02 72 85.04 72 83 C71.67 83 71.34 83 71 83 Z M63 100 C64 102 64 102 64 102 Z M32 139 C33 142 33 142 33 142 Z M-47 166 C-47.33 168.64 -47.66 171.28 -48 174 C-44.535 173.505 -44.535 173.505 -41 173 C-41 172.67 -41 172.34 -41 172 C-42.65 172 -44.3 172 -46 172 C-46 170.02 -46 168.04 -46 166 C-46.33 166 -46.66 166 -47 166 Z M53 168 C52.67 170.31 52.34 172.62 52 175 C54.31 174.34 56.62 173.68 59 173 C59 172.67 59 172.34 59 172 C57.35 172 55.7 172 54 172 C53.67 170.68 53.34 169.36 53 168 Z " fill="#FA1F55" transform="translate(189,92)"/>
<path d="M0 0 C3.125 0.25 3.125 0.25 5 1.4375 C6.47281139 3.81036279 6.34723194 5.50913944 6.125 8.25 C7.115 8.58 8.105 8.91 9.125 9.25 C9.22522461 9.87865967 9.32544922 10.50731934 9.42871094 11.1550293 C12.32362936 33.78405704 12.32362936 33.78405704 23.125 53.25 C23.68445313 53.9615625 24.24390625 54.673125 24.8203125 55.40625 C29.00954704 60.59113221 32.67440885 63.753915 39.578125 64.5234375 C45.74000194 64.76327103 50.00109707 63.94327145 54.796875 59.80859375 C56.66581007 58.02648973 58.39920632 56.1708834 60.125 54.25 C60.73859375 53.59 61.3521875 52.93 61.984375 52.25 C71.59952799 41.07341191 72.18746391 26.35066462 73.79956055 12.2902832 C74.125 10.25 74.125 10.25 75.125 8.25 C75.785 8.25 76.445 8.25 77.125 8.25 C77.41375 7.30125 77.7025 6.3525 78 5.375 C79.125 2.25 79.125 2.25 81.125 0.25 C83.5625 -0.0625 83.5625 -0.0625 86.125 0.25 C88.05882464 1.7608005 88.98732631 2.73772581 89.62890625 5.125 C89.77224602 10.3234558 88.69292473 13.40117081 86 17.875 C83.42142986 22.14530752 83.42142986 22.14530752 83.5 27.125 C84.96927902 30.28214178 84.96927902 30.28214178 87.25 32.5625 C90.07583956 36.61287004 89.5597866 40.45235471 89.125 45.25 C88.856875 46.52875 88.58875 47.8075 88.3125 49.125 C88.2196875 50.671875 88.2196875 50.671875 88.125 52.25 C90.07746665 54.50055924 90.07746665 54.50055924 93.125 56.25 C99.77942527 60.95807163 105.13228597 64.94702487 107.125 73.25 C107.74581556 79.83064498 106.64229398 86.20127729 102.3671875 91.37890625 C100.6719645 93.07756087 98.95121434 94.69396532 97.125 96.25 C97.61484375 96.66765625 98.1046875 97.0853125 98.609375 97.515625 C100.71148747 99.92113514 100.41112045 102.02474772 100.296875 105.109375 C100.04955937 108.18957872 99.63304729 111.20171624 99.125 114.25 C99.785 114.25 100.445 114.25 101.125 114.25 C101.3125 117.625 101.3125 117.625 101.125 121.25 C97.43013897 123.71324069 95.49206908 123.63991688 91.125 123.25 C89.421875 122.03515625 89.421875 122.03515625 88.125 120.25 C87.796875 117.9453125 87.796875 117.9453125 87.875 115.375 C87.90078125 114.49328125 87.9265625 113.6115625 87.953125 112.703125 C88.13203956 110.14952634 88.46476533 107.72588001 89.125 105.25 C87.805 105.25 86.485 105.25 85.125 105.25 C84.99222656 106.30960937 84.85945313 107.36921875 84.72265625 108.4609375 C84.54446125 109.84898279 84.3660654 111.23700231 84.1875 112.625 C84.10048828 113.32367188 84.01347656 114.02234375 83.92382812 114.7421875 C83.23828125 120.0234375 83.23828125 120.0234375 82.125 122.25 C78.825 122.25 75.525 122.25 72.125 122.25 C72.77410639 113.5903306 74.069801 105.16526421 75.625 96.625 C75.85058594 95.34753906 76.07617188 94.07007813 76.30859375 92.75390625 C77.99585024 83.37914976 77.99585024 83.37914976 79.125 82.25 C80.45656473 82.17825621 81.7916761 82.16607158 83.125 82.1875 C83.846875 82.19652344 84.56875 82.20554687 85.3125 82.21484375 C85.910625 82.22644531 86.50875 82.23804688 87.125 82.25 C87.455 82.25 87.785 82.25 88.125 82.25 C76.99964558 82.5176777 76.99964558 82.5176777 72.80859375 79.68359375 C68.88909291 75.35775157 66.80808705 70.79428676 65.125 65.25 C64.79628906 65.76949219 64.46757812 66.28898437 64.12890625 66.82421875 C59.67537188 73.35365532 54.59349373 76.76050209 47.125 79.25 C39.94909617 79.98599014 33.84753873 79.00617584 27.98828125 74.66796875 C24.26574514 71.50966177 21.00612407 68.2115456 18.125 64.25 C17.91875 65.425625 17.7125 66.60125 17.5 67.8125 C16.27692455 72.69612751 13.84770904 75.91623071 10.125 79.25 C6.33588984 81.38744676 2.41711054 81.74504582 -1.875 82.25 C-1.875 83.57 -1.875 84.89 -1.875 86.25 C0.435 85.92 2.745 85.59 5.125 85.25 C5.455 86.9 5.785 88.55 6.125 90.25 C3.24412454 92.65072955 0.56095166 94.72291037 -2.875 96.25 C-1.885 97.24 -1.885 97.24 -0.875 98.25 C-0.73002015 100.83064129 -0.68822455 103.29943884 -0.75 105.875 C-0.75902344 106.58140625 -0.76804688 107.2878125 -0.77734375 108.015625 C-0.80092397 109.76056098 -0.83679539 111.50532295 -0.875 113.25 C0.115 113.745 0.115 113.745 1.125 114.25 C1.3125 117.625 1.3125 117.625 1.125 121.25 C-2.5955836 123.73038907 -4.47296571 123.71337203 -8.875 123.25 C-11.11328125 121.6796875 -11.11328125 121.6796875 -12.875 119.25 C-13.046875 115.796875 -13.046875 115.796875 -12.625 112 C-12.49609375 110.73671875 -12.3671875 109.4734375 -12.234375 108.171875 C-12.11578125 107.20765625 -11.9971875 106.2434375 -11.875 105.25 C-13.36 105.745 -13.36 105.745 -14.875 106.25 C-15.865 111.53 -16.855 116.81 -17.875 122.25 C-21.175 122.25 -24.475 122.25 -27.875 122.25 C-28.22791169 115.12842304 -27.0511305 108.42010735 -25.79370117 101.42114258 C-25.43540487 99.42583244 -25.08701362 97.42898152 -24.74023438 95.43164062 C-23.02795252 85.70885755 -23.02795252 85.70885755 -21.875 82.25 C-18.54166667 82.25 -15.20833333 82.25 -11.875 82.25 C-15.505 81.92 -19.135 81.59 -22.875 81.25 C-23.47863479 73.28202077 -23.47863479 73.28202077 -20.9375 68.9375 C-17.61588435 65.49108376 -13.29240863 63.88607727 -8.875 62.25 C-14.57554012 59.76249158 -19.61859895 58.16834324 -25.875 59.25 C-28.58607713 60.62716666 -28.58607713 60.62716666 -29.875 63.25 C-30.45842353 66.79230809 -30.45842353 66.79230809 -29.875 70.25 C-29.38 70.745 -28.885 71.24 -28.375 71.75 C-26.875 73.25 -26.875 73.25 -26.6875 76.9375 C-26.749375 78.030625 -26.81125 79.12375 -26.875 80.25 C-28.855 80.745 -28.855 80.745 -30.875 81.25 C-31.24625 80.074375 -31.24625 80.074375 -31.625 78.875 C-33.08424503 75.81058543 -33.92514956 75.63274239 -36.875 74.25 C-39.83975636 69.57157241 -39.43375873 64.59003593 -38.875 59.25 C-37.40013693 53.07677073 -34.96753538 48.27420114 -29.890625 44.3671875 C-26.41973583 42.44340009 -22.77868255 41.7634095 -18.875 41.25 C-19.47828125 41.03085938 -20.0815625 40.81171875 -20.703125 40.5859375 C-26.08491262 38.45058306 -29.38544601 36.77031537 -31.875 31.25 C-32.125 27.375 -32.125 27.375 -31.875 24.25 C-30.555 24.25 -29.235 24.25 -27.875 24.25 C-27.2871875 22.950625 -27.2871875 22.950625 -26.6875 21.625 C-25.28287604 19.00949332 -24.15588239 17.29052434 -22.25 15.125 C-20.16311246 12.59876771 -19.24026764 11.41565291 -18.875 8.25 C-16.00775314 8.82344937 -15.0135485 9.1114515 -12.875 11.25 C-9.29156024 11.41677282 -9.29156024 11.41677282 -5.875 11.25 C-5.74222656 10.53972656 -5.60945313 9.82945312 -5.47265625 9.09765625 C-5.29605469 8.17855469 -5.11945313 7.25945312 -4.9375 6.3125 C-4.76347656 5.39597656 -4.58945313 4.47945312 -4.41015625 3.53515625 C-3.62763552 0.19373563 -3.52107731 0.30618064 0 0 Z M66.125 61.25 C67.125 64.25 67.125 64.25 67.125 64.25 Z M-12.875 88.25 C-13.205 90.89 -13.535 93.53 -13.875 96.25 C-10.41 95.755 -10.41 95.755 -6.875 95.25 C-6.875 94.92 -6.875 94.59 -6.875 94.25 C-8.525 94.25 -10.175 94.25 -11.875 94.25 C-11.875 92.27 -11.875 90.29 -11.875 88.25 C-12.205 88.25 -12.535 88.25 -12.875 88.25 Z M87.125 90.25 C86.795 92.56 86.465 94.87 86.125 97.25 C88.435 96.59 90.745 95.93 93.125 95.25 C93.125 94.92 93.125 94.59 93.125 94.25 C91.475 94.25 89.825 94.25 88.125 94.25 C87.795 92.93 87.465 91.61 87.125 90.25 Z " fill="#FA1B52" transform="translate(154.875,169.75)"/>
<path d="M0 0 C1.37478516 0.01740234 1.37478516 0.01740234 2.77734375 0.03515625 C3.69644531 0.04417969 4.61554688 0.05320313 5.5625 0.0625 C6.27277344 0.07410156 6.98304688 0.08570313 7.71484375 0.09765625 C9.79110688 4.7220605 11.41507327 9.19852135 12.71484375 14.09765625 C13.63365402 12.8909521 14.54976426 11.68219201 15.46484375 10.47265625 C16.02171875 9.74820312 16.57859375 9.02375 17.15234375 8.27734375 C18.89492247 5.96738293 18.89492247 5.96738293 20.46484375 2.59765625 C22.71484375 0.09765625 22.71484375 0.09765625 25.18359375 -0.26953125 C27.72273068 -0.27666366 30.19006801 -0.16253056 32.71484375 0.09765625 C33.98754238 4.5577663 33.37336164 8.34818637 32.5 12.8046875 C32.36540878 13.53008224 32.23081757 14.25547699 32.09214783 15.00285339 C31.66256872 17.30701877 31.22016369 19.60850278 30.77734375 21.91015625 C30.48287256 23.47705378 30.18924344 25.0441098 29.89648438 26.61132812 C29.17900946 30.44200833 28.45002613 34.27033671 27.71484375 38.09765625 C24.08484375 38.09765625 20.45484375 38.09765625 16.71484375 38.09765625 C17.04484375 34.13765625 17.37484375 30.17765625 17.71484375 26.09765625 C16.72484375 27.41765625 15.73484375 28.73765625 14.71484375 30.09765625 C11.95342072 30.62565301 9.5511883 30.28364606 6.71484375 30.09765625 C6.38484375 28.44765625 6.05484375 26.79765625 5.71484375 25.09765625 C5.05484375 25.09765625 4.39484375 25.09765625 3.71484375 25.09765625 C3.65425781 25.78472656 3.59367187 26.47179687 3.53125 27.1796875 C3.44746094 28.08074219 3.36367188 28.98179687 3.27734375 29.91015625 C3.19613281 30.80347656 3.11492187 31.69679688 3.03125 32.6171875 C2.71484375 35.09765625 2.71484375 35.09765625 1.71484375 38.09765625 C-1.58515625 38.09765625 -4.88515625 38.09765625 -8.28515625 38.09765625 C-9.56365271 34.26216687 -8.81681517 31.27268538 -8.10546875 27.40234375 C-7.90713943 26.28027023 -7.90713943 26.28027023 -7.70480347 25.13552856 C-7.424075 23.55635626 -7.13973432 21.97782244 -6.85205078 20.39990234 C-6.41084044 17.97641436 -5.98187877 15.55099415 -5.5546875 13.125 C-5.28066776 11.59231905 -5.00595206 10.05976232 -4.73046875 8.52734375 C-4.53664108 7.43363968 -4.53664108 7.43363968 -4.33889771 6.31784058 C-3.20323871 0.13689054 -3.20323871 0.13689054 0 0 Z M18.71484375 22.09765625 C19.71484375 24.09765625 19.71484375 24.09765625 19.71484375 24.09765625 Z " fill="#1C941A" transform="translate(266.28515625,253.90234375)"/>
<path d="M0 0 C0 3 0 3 -1 6 C-0.35546875 6.21398437 0.2890625 6.42796875 0.953125 6.6484375 C3 8 3 8 3.609375 10.6015625 C3.65578125 11.59929687 3.7021875 12.59703125 3.75 13.625 C3.80671875 14.62789062 3.8634375 15.63078125 3.921875 16.6640625 C3.94765625 17.43492187 3.9734375 18.20578125 4 19 C5.134375 19.268125 6.26875 19.53625 7.4375 19.8125 C8.613125 20.204375 9.78875 20.59625 11 21 C11.33 21.99 11.66 22.98 12 24 C10.02 24.99 10.02 24.99 8 26 C8.66 26.66 9.32 27.32 10 28 C10.14497985 30.58064129 10.18677545 33.04943884 10.125 35.625 C10.11597656 36.33140625 10.10695312 37.0378125 10.09765625 37.765625 C10.07407603 39.51056098 10.03820461 41.25532295 10 43 C10.66 43.33 11.32 43.66 12 44 C12.1875 47.375 12.1875 47.375 12 51 C8.2794164 53.48038907 6.40203429 53.46337203 2 53 C-0.23828125 51.4296875 -0.23828125 51.4296875 -2 49 C-2.171875 45.546875 -2.171875 45.546875 -1.75 41.75 C-1.62109375 40.48671875 -1.4921875 39.2234375 -1.359375 37.921875 C-1.24078125 36.95765625 -1.1221875 35.9934375 -1 35 C-2.485 35.495 -2.485 35.495 -4 36 C-4.99 41.28 -5.98 46.56 -7 52 C-10.3 52 -13.6 52 -17 52 C-17.35291169 44.87842304 -16.1761305 38.17010735 -14.91870117 31.17114258 C-14.56040487 29.17583244 -14.21201362 27.17898152 -13.86523438 25.18164062 C-12.15295252 15.45885755 -12.15295252 15.45885755 -11 12 C-7.66666667 12 -4.33333333 12 -1 12 C-4.63 11.67 -8.26 11.34 -12 11 C-12 9.68 -12 8.36 -12 7 C-10.7625 6.773125 -9.525 6.54625 -8.25 6.3125 C-4.07965475 5.2994906 -2.32446864 3.68040867 0 0 Z M-2 18 C-2.33 20.64 -2.66 23.28 -3 26 C0.465 25.505 0.465 25.505 4 25 C4 24.67 4 24.34 4 24 C2.35 24 0.7 24 -1 24 C-1 22.02 -1 20.04 -1 18 C-1.33 18 -1.66 18 -2 18 Z " fill="#1C951A" transform="translate(144,240)"/>
<path d="M0 0 C0.66 0.66 1.32 1.32 2 2 C2.33 1.67 2.66 1.34 3 1 C4.36125 1.061875 4.36125 1.061875 5.75 1.125 C9.55909442 0.97849637 10.83719718 0.05949951 14 -2 C19.55072476 -5.12839282 23.69040011 -6.4899412 30.0546875 -5.5546875 C32 -5 32 -5 35 -3 C34.67 -2.01 34.34 -1.02 34 0 C33.35933594 0.01417969 32.71867187 0.02835938 32.05859375 0.04296875 C25.46465756 0.40656881 22.03699241 1.72950643 17 6 C17.495 6.99 17.495 6.99 18 8 C24.28627393 8.26897354 24.28627393 8.26897354 30 6 C31.32 6 32.64 6 34 6 C34.495 8.97 34.495 8.97 35 12 C27.48441937 16.37270146 22.69129847 16.44854975 14 15 C12.68 18.96 11.36 22.92 10 27 C9.01 27 8.02 27 7 27 C6.505 16.605 6.505 16.605 6 6 C5.01 6 4.02 6 3 6 C3.495 6.99 3.495 6.99 4 8 C4.43426831 14.04143858 3.76025104 20.01302309 3 26 C1.109375 25.81640625 1.109375 25.81640625 -1 25 C-2.046875 22.71484375 -2.046875 22.71484375 -2.75 19.9375 C-2.99234375 19.01839844 -3.2346875 18.09929687 -3.484375 17.15234375 C-3.65453125 16.44207031 -3.8246875 15.73179687 -4 15 C-5.02480469 15.02320313 -6.04960937 15.04640625 -7.10546875 15.0703125 C-8.46613851 15.08908036 -9.8268162 15.10727947 -11.1875 15.125 C-12.19780273 15.15013672 -12.19780273 15.15013672 -13.22851562 15.17578125 C-17.28807807 15.21538674 -20.34998815 14.80020002 -24 13 C-23.74438677 10.6568787 -23.40729228 8.32156597 -23 6 C-22.34 5.67 -21.68 5.34 -21 5 C-20.0925 5.474375 -19.185 5.94875 -18.25 6.4375 C-14.780605 8.10547837 -12.79159134 8.43086265 -9 8 C-8.34 7.34 -7.68 6.68 -7 6 C-13.43718727 1.56525522 -13.43718727 1.56525522 -21 0 C-22.67099977 0.31088368 -24.33871537 0.64080332 -26 1 C-26.99 0.67 -27.98 0.34 -29 0 C-28.67 -1.65 -28.34 -3.3 -28 -5 C-17.17135301 -6.54694957 -9.51477265 -5.7736144 0 0 Z " fill="#FA1F56" transform="translate(192,175)"/>
<path d="M0 0 C2.22190424 1.44883293 3.66459463 2.79012675 4.85546875 5.171875 C4.76895244 6.71800514 4.61544239 8.26096887 4.41796875 9.796875 C4.31613281 10.61414063 4.21429688 11.43140625 4.109375 12.2734375 C4.02558594 12.89992188 3.94179687 13.52640625 3.85546875 14.171875 C2.20546875 14.831875 0.55546875 15.491875 -1.14453125 16.171875 C-0.65855469 16.54570312 -0.17257813 16.91953125 0.328125 17.3046875 C2.99818199 20.56884924 2.31562506 24.23124794 2.203125 28.28125 C1.74678632 32.07552665 0.86175942 33.79848763 -2.14453125 36.171875 C-7.41345967 38.87059443 -13.35674597 38.73947356 -19.14453125 38.171875 C-23.30562985 36.63883867 -24.68388696 35.86284143 -27.14453125 32.171875 C-27.40213404 29.47734979 -27.23353178 26.88639125 -27.14453125 24.171875 C-23.51453125 24.171875 -19.88453125 24.171875 -16.14453125 24.171875 C-15.81453125 25.161875 -15.48453125 26.151875 -15.14453125 27.171875 C-13.16453125 27.171875 -11.18453125 27.171875 -9.14453125 27.171875 C-11.41246517 24.61318032 -13.48493895 23.43571192 -16.64453125 22.171875 C-19.75890599 20.9261251 -22.11254243 19.90454962 -24.14453125 17.171875 C-25.08261779 12.26171032 -24.61836006 8.15463105 -22.45703125 3.671875 C-17.1185453 -2.09946116 -7.17931021 -2.77233837 0 0 Z M-13.14453125 9.171875 C-12.81453125 10.491875 -12.48453125 11.811875 -12.14453125 13.171875 C-10.49453125 13.501875 -8.84453125 13.831875 -7.14453125 14.171875 C-6.55383111 12.22584226 -6.55383111 12.22584226 -6.14453125 10.171875 C-7.2698723 8.81569001 -7.2698723 8.81569001 -10.20703125 9.109375 C-11.17640625 9.13 -12.14578125 9.150625 -13.14453125 9.171875 Z " fill="#1C9419" transform="translate(123.14453125,254.828125)"/>
<path d="M0 0 C0.721875 0.00257813 1.44375 0.00515625 2.1875 0.0078125 C2.909375 0.00523437 3.63125 0.00265625 4.375 0 C6.1875 0.1328125 6.1875 0.1328125 7.1875 1.1328125 C7.36298271 5.60762149 7.04440932 9.74115223 6.1875 14.1328125 C7.239375 13.9059375 8.29125 13.6790625 9.375 13.4453125 C13.59831772 13.09913892 14.89659137 13.61623531 18.1875 16.1328125 C19.1875 17.1328125 19.1875 17.1328125 19.3125 20.7578125 C19.27054465 24.63168972 18.82389059 28.31446894 18.1875 32.1328125 C18.8475 32.1328125 19.5075 32.1328125 20.1875 32.1328125 C20.375 35.5078125 20.375 35.5078125 20.1875 39.1328125 C16.49263897 41.59605319 14.55456908 41.52272938 10.1875 41.1328125 C8.484375 39.91796875 8.484375 39.91796875 7.1875 38.1328125 C6.859375 35.828125 6.859375 35.828125 6.9375 33.2578125 C6.96328125 32.37609375 6.9890625 31.494375 7.015625 30.5859375 C7.19453956 28.03233884 7.52726533 25.60869251 8.1875 23.1328125 C6.8675 23.1328125 5.5475 23.1328125 4.1875 23.1328125 C4.05472656 24.19242187 3.92195312 25.25203125 3.78515625 26.34375 C3.60696125 27.73179529 3.4285654 29.11981481 3.25 30.5078125 C3.16298828 31.20648438 3.07597656 31.90515625 2.98632812 32.625 C2.30078125 37.90625 2.30078125 37.90625 1.1875 40.1328125 C-2.1125 40.1328125 -5.4125 40.1328125 -8.8125 40.1328125 C-8.16339361 31.4731431 -6.867699 23.04807671 -5.3125 14.5078125 C-5.08691406 13.23035156 -4.86132812 11.95289063 -4.62890625 10.63671875 C-2.75080126 0.20156733 -2.75080126 0.20156733 0 0 Z " fill="#1C951A" transform="translate(235.8125,251.8671875)"/>
<path d="M0 0 C2.6875 1.6875 2.6875 1.6875 4.6875 4.6875 C4.87927069 11.01593264 4.36065526 17.38183129 0.6875 22.6875 C-3.72767901 26.68875598 -8.04065701 27.05419051 -13.79296875 26.953125 C-17.70903475 26.54026843 -19.63768686 25.5734826 -22.3125 22.6875 C-23.97779598 15.69045807 -21.29954861 8.37773313 -18 2.25 C-13.0522519 -2.33124824 -5.97575175 -2.36775069 0 0 Z M-9.3125 8.6875 C-11.72371859 10.64383975 -11.72371859 10.64383975 -11.4375 14.3125 C-11.39625 15.42625 -11.355 16.54 -11.3125 17.6875 C-9.9925 17.3575 -8.6725 17.0275 -7.3125 16.6875 C-6.9825 14.0475 -6.6525 11.4075 -6.3125 8.6875 C-7.3025 8.6875 -8.2925 8.6875 -9.3125 8.6875 Z " fill="#1B9419" transform="translate(222.3125,266.3125)"/>
<path d="M0 0 C2.97 0 5.94 0 9 0 C9.09063407 5.80058027 8.83485204 11.26039225 8 17 C10.08611659 16.56483494 10.08611659 16.56483494 12 15 C12.46709352 12.33517159 12.69572473 10.04929034 12.75 7.375 C12.77964844 6.66859375 12.80929688 5.9621875 12.83984375 5.234375 C12.91055357 3.49019953 12.95754035 1.74509173 13 0 C16.3 0 19.6 0 23 0 C23.0816082 2.37570543 23.14077222 4.74855841 23.1875 7.125 C23.21263672 7.79015625 23.23777344 8.4553125 23.26367188 9.140625 C23.35577447 15.40360121 21.60897119 19.18990741 17.5 23.8125 C13.5824841 27.24032641 10.20180652 27.27098377 5.2265625 27.23046875 C1.79911858 26.87569824 -0.59227008 25.40772992 -3 23 C-3.78619978 14.94145226 -2.25771279 7.70041327 0 0 Z " fill="#1C9419" transform="translate(176,266)"/>
<path d="M0 0 C0.99 0.66 1.98 1.32 3 2 C2.67 2.99 2.34 3.98 2 5 C1.35933594 5.01417969 0.71867187 5.02835938 0.05859375 5.04296875 C-6.53534244 5.40656881 -9.96300759 6.72950643 -15 11 C-14.67 11.66 -14.34 12.32 -14 13 C-7.71372607 13.26897354 -7.71372607 13.26897354 -2 11 C-0.68 11 0.64 11 2 11 C2.33 12.98 2.66 14.96 3 17 C-4.51558063 21.37270146 -9.30870153 21.44854975 -18 20 C-19.32 23.96 -20.64 27.92 -22 32 C-22.99 32 -23.98 32 -25 32 C-25.1164862 28.27109745 -25.18734576 24.54266486 -25.25 20.8125 C-25.28351563 19.75740234 -25.31703125 18.70230469 -25.3515625 17.61523438 C-25.44981507 9.82871812 -25.44981507 9.82871812 -23.33984375 5.94140625 C-16.79566284 0.51159338 -8.34552103 -2.67552797 0 0 Z " fill="#FB194F" transform="translate(224,170)"/>
<path d="M0 0 C3.0996593 -0.39570119 5.12198451 -0.49754211 7.875 1.0625 C9.58196395 4.00227124 9.18799766 6.67870803 9 10 C8 8 7 6 6 4 C3.47266765 3.34444881 3.47266765 3.34444881 1 3 C1.26539199 10.96175978 3.69300838 17.28230347 8 24 C8.72316406 24.54011719 9.44632813 25.08023438 10.19140625 25.63671875 C11.08666016 26.31154297 11.08666016 26.31154297 12 27 C12.125 30.4375 12.125 30.4375 12 34 C12.65035814 35.34136367 13.3162955 36.67532254 14 38 C14.47580309 41.7271242 14.27363413 43.50745856 12.4375 46.8125 C9.23003157 49.69099731 7.2850666 50.07517661 3 50 C0.19810554 48.23358828 -1.51524911 46.96950178 -3 44 C-3.69287118 38.11059496 -3.69287118 38.11059496 -1.91796875 35.265625 C-1.47066406 34.70359375 -1.02335938 34.1415625 -0.5625 33.5625 C1.84794054 30.46138881 2.97499953 28.02744495 3.28515625 24.09375 C2.82334378 20.70290772 0.94454574 18.23627319 -0.84375 15.375 C-2.77757956 11.40280956 -2.73882545 7.30851893 -2 3 C-1.34 2.01 -0.68 1.02 0 0 Z " fill="#FECCD8" transform="translate(152,170)"/>
<path d="M0 0 C1.92787976 1.51443085 2.86280265 2.48949822 3.50390625 4.875 C3.64724602 10.0734558 2.56792473 13.15117081 -0.125 17.625 C-2.70357014 21.89530752 -2.70357014 21.89530752 -2.625 26.875 C-1.15572098 30.03214178 -1.15572098 30.03214178 1.125 32.3125 C3.95506515 36.36892671 3.53589939 40.19987257 3 45 C2 48.625 2 48.625 1 51 C0.34 50.67 -0.32 50.34 -1 50 C-2.4780676 49.89903144 -3.95755117 49.81804362 -5.4375 49.75 C-9.698918 49.2833713 -9.698918 49.2833713 -12.125 47 C-13.52862048 42.18758694 -12.69414665 37.69169096 -11.45703125 32.89453125 C-10.89401265 30.56065073 -10.93357098 28.39144465 -11 26 C-10.21625 25.79375 -9.4325 25.5875 -8.625 25.375 C-5.7483354 24.22733739 -5.7483354 24.22733739 -4.875 21.25 C-4.58625 20.1775 -4.2975 19.105 -4 18 C-3.46375 17.05125 -2.9275 16.1025 -2.375 15.125 C-0.60858299 11.11041589 -0.77491545 8.3516346 -1 4 C-2.32 4 -3.64 4 -5 4 C-5.66 5.98 -6.32 7.96 -7 10 C-7.33 10 -7.66 10 -8 10 C-8.36272727 3.59181818 -8.36272727 3.59181818 -6.8125 1.0625 C-4.33950907 -0.38718434 -2.82115488 -0.42317323 0 0 Z " fill="#FED4DF" transform="translate(241,170)"/>
<path d="M0 0 C2.625 0.375 2.625 0.375 5 1 C5 1.99 5 2.98 5 4 C4.360625 4.28875 3.72125 4.5775 3.0625 4.875 C0.84793921 5.82823451 0.84793921 5.82823451 0 8 C2.97 8.33 5.94 8.66 9 9 C9.33 10.32 9.66 11.64 10 13 C9.195625 13.2475 8.39125 13.495 7.5625 13.75 C6.716875 14.1625 5.87125 14.575 5 15 C4.25723969 16.97080157 4.25723969 16.97080157 4 19 C1.30898766 21.69101234 -0.19075946 21.29887549 -3.9375 21.3125 C-5.52884766 21.33763672 -5.52884766 21.33763672 -7.15234375 21.36328125 C-10 21 -10 21 -11.87890625 19.66796875 C-13 18 -13 18 -13 15 C-14.32 14.67 -15.64 14.34 -17 14 C-17.5625 12.0625 -17.5625 12.0625 -18 10 C-16.41727399 8.41727399 -14.61965997 8.65264253 -12.4375 8.4375 C-11.61121094 8.35371094 -10.78492188 8.26992187 -9.93359375 8.18359375 C-9.29550781 8.12300781 -8.65742188 8.06242188 -8 8 C-8 7.34 -8 6.68 -8 6 C-9.98 5.34 -11.96 4.68 -14 4 C-14 3.01 -14 2.02 -14 1 C-10.60489167 0.93342925 -7.51200592 0.88622091 -4.1875 1.625 C-3.465625 1.74875 -2.74375 1.8725 -2 2 C-1.34 1.34 -0.68 0.68 0 0 Z M-9 15 C-9 15.33 -9 15.66 -9 16 C-5.7 16 -2.4 16 1 16 C1 15.67 1 15.34 1 15 C-2.3 15 -5.6 15 -9 15 Z " fill="#FA2056" transform="translate(201,205)"/>
<path d="M0 0 C1.23556641 0.01740234 1.23556641 0.01740234 2.49609375 0.03515625 C3.32238281 0.04417969 4.14867187 0.05320312 5 0.0625 C5.63808594 0.07410156 6.27617187 0.08570313 6.93359375 0.09765625 C8.2249216 3.9716398 7.34472947 6.91754411 6.49609375 10.78515625 C6.34849609 11.48705078 6.20089844 12.18894531 6.04882812 12.91210938 C5.68400055 14.64209819 5.30970686 16.37008588 4.93359375 18.09765625 C5.92359375 18.09765625 6.91359375 18.09765625 7.93359375 18.09765625 C8.12109375 21.47265625 8.12109375 21.47265625 7.93359375 25.09765625 C4.24641937 27.5557725 2.29013671 27.40883789 -2.06640625 27.09765625 C-3.05640625 26.43765625 -4.04640625 25.77765625 -5.06640625 25.09765625 C-6.14670413 17.21032009 -5.07274085 8.77151998 -3.06640625 1.09765625 C-2.06640625 0.09765625 -2.06640625 0.09765625 0 0 Z " fill="#1C941A" transform="translate(163.06640625,265.90234375)"/>
<path d="M0 0 C3 1 3 1 4 3 C4.34541851 5.33157492 4.67794257 7.66508361 5 10 C5.16886719 10.59425781 5.33773437 11.18851563 5.51171875 11.80078125 C6.95478472 18.30035039 7.42192911 26.48637994 4 32.375 C3.34 33.24125 2.68 34.1075 2 35 C0.1875 34.9375 0.1875 34.9375 -2 34 C-6.97604189 26.00278981 -5.53784775 16.69752225 -3.625 7.875 C-2.30188679 2.30188679 -2.30188679 2.30188679 0 0 Z " fill="#FA174E" transform="translate(197,107)"/>
<path d="M0 0 C4.04752657 0.04737027 5.4516 0.18191764 8.9375 2.4375 C11.16607253 6.04932444 11.22266285 8.19981154 10.75 12.375 C10.42 13.035 10.09 13.695 9.75 14.375 C11.4 14.375 13.05 14.375 14.75 14.375 C14.75 15.365 14.75 16.355 14.75 17.375 C14.09 18.035 13.43 18.695 12.75 19.375 C9.36922339 19.34174646 6.11043621 18.80582516 2.75 18.375 C2.75 14.415 2.75 10.455 2.75 6.375 C-0.88 6.045 -4.51 5.715 -8.25 5.375 C-5.64891072 0.17282145 -5.5501406 0.19291933 0 0 Z " fill="#CF475C" transform="translate(240.25,245.625)"/>
<path d="M0 0 C0 3 0 3 -1 6 C-0.35546875 6.21398437 0.2890625 6.42796875 0.953125 6.6484375 C3 8 3 8 3.609375 10.6015625 C3.65578125 11.59929687 3.7021875 12.59703125 3.75 13.625 C3.80671875 14.62789062 3.8634375 15.63078125 3.921875 16.6640625 C3.96054688 17.82035156 3.96054688 17.82035156 4 19 C5.134375 19.268125 6.26875 19.53625 7.4375 19.8125 C8.613125 20.204375 9.78875 20.59625 11 21 C11.33 21.99 11.66 22.98 12 24 C9.27157939 25.36421031 7.39046682 24.87807211 4.375 24.5625 C2.60125 24.376875 0.8275 24.19125 -1 24 C-1 20.04 -1 16.08 -1 12 C-4.63 11.67 -8.26 11.34 -12 11 C-12 9.68 -12 8.36 -12 7 C-10.7625 6.773125 -9.525 6.54625 -8.25 6.3125 C-4.07965475 5.2994906 -2.32446864 3.68040867 0 0 Z " fill="#B4877D" transform="translate(144,240)"/>
<path d="M0 0 C3.0996593 -0.39570119 5.12198451 -0.49754211 7.875 1.0625 C9.58196395 4.00227124 9.18799766 6.67870803 9 10 C8 8 7 6 6 4 C3.47266765 3.34444881 3.47266765 3.34444881 1 3 C1.26613727 10.98411801 3.75345474 17.22876738 8 24 C8.99 24.66 9.98 25.32 11 26 C10.67 26.99 10.34 27.98 10 29 C9.401875 28.814375 8.80375 28.62875 8.1875 28.4375 C5.83591238 27.77906313 5.83591238 27.77906313 3 29 C3.1546875 27.5459375 3.1546875 27.5459375 3.3125 26.0625 C3.34767004 22.55956368 2.35588144 20.62554329 0.5 17.6875 C-2.40998612 12.88148892 -2.94850588 8.5312869 -2 3 C-1.34 2.01 -0.68 1.02 0 0 Z " fill="#FEDEE6" transform="translate(152,170)"/>
<path d="M0 0 C1.92787976 1.51443085 2.86280265 2.48949822 3.50390625 4.875 C3.67832871 11.20072128 1.5465179 15.04383985 -1.6640625 20.40234375 C-3.47280163 23.91933651 -3.51501334 26.13739997 -3 30 C-4.65 29.01 -6.3 28.02 -8 27 C-8.33 27.99 -8.66 28.98 -9 30 C-9.33 28.35 -9.66 26.7 -10 25 C-9.38125 24.95875 -8.7625 24.9175 -8.125 24.875 C-7.42375 24.58625 -6.7225 24.2975 -6 24 C-4.85771342 21.24236568 -4.85771342 21.24236568 -4 18 C-3.46375 17.05125 -2.9275 16.1025 -2.375 15.125 C-0.60858299 11.11041589 -0.77491545 8.3516346 -1 4 C-2.32 4 -3.64 4 -5 4 C-5.66 5.98 -6.32 7.96 -7 10 C-7.33 10 -7.66 10 -8 10 C-8.36272727 3.59181818 -8.36272727 3.59181818 -6.8125 1.0625 C-4.33950907 -0.38718434 -2.82115488 -0.42317323 0 0 Z " fill="#FEEDF1" transform="translate(241,170)"/>
<path d="M0 0 C2 2 2 2 2.375 5.4375 C2 9 2 9 0.4375 11 C-2.96372991 12.39537637 -5.4655107 11.74768043 -9 11 C-9.08096803 9.54257537 -9.13917774 8.08387193 -9.1875 6.625 C-9.22230469 5.81289063 -9.25710937 5.00078125 -9.29296875 4.1640625 C-9.19628906 3.44992188 -9.09960938 2.73578125 -9 2 C-5.54754176 -0.30163882 -4.05261287 -0.34490322 0 0 Z " fill="#1C9419" transform="translate(171,252)"/>
<path d="M0 0 C0.33 0 0.66 0 1 0 C1.20413361 5.73842251 1.27141454 10.60539047 -1 16 C-1.66 15.67 -2.32 15.34 -3 15 C-4.4780676 14.89903144 -5.95755117 14.81804362 -7.4375 14.75 C-11.7160503 14.30976331 -11.7160503 14.30976331 -14.0625 11.75 C-15.01377065 8.95960608 -15.25056368 6.92324292 -15 4 C-14.67 4.66 -14.34 5.32 -14 6 C-13.34 6 -12.68 6 -12 6 C-11.67 6.66 -11.34 7.32 -11 8 C-8.69 8 -6.38 8 -4 8 C-3.34 6.35 -2.68 4.7 -2 3 C-1.34 3 -0.68 3 0 3 C0 2.01 0 1.02 0 0 Z " fill="#FEE7ED" transform="translate(243,205)"/>
<path d="M0 0 C1.65 0 3.3 0 5 0 C5.99 2.31 6.98 4.62 8 7 C7.34 7.66 6.68 8.32 6 9 C5.67 8.67 5.34 8.34 5 8 C5.60745397 12.85963179 7.72758967 16.7405518 10 21 C8.68 21 7.36 21 6 21 C4.79260313 18.6333817 3.60945753 16.25909646 2.4375 13.875 C2.09525391 13.20984375 1.75300781 12.5446875 1.40039062 11.859375 C-0.71316777 7.50416375 -1.38217096 4.84892761 0 0 Z " fill="#FC5981" transform="translate(153,173)"/>
<path d="M0 0 C1.65 0.33 3.3 0.66 5 1 C5.88664122 8.68422393 3.21426539 14.59144557 -1 21 C-1.99 21.33 -2.98 21.66 -4 22 C-3.24742268 16.48109966 -3.24742268 16.48109966 -1.875 13.8125 C-0.66479088 11.84359635 -0.66479088 11.84359635 -2 9 C-2.33 8.34 -2.66 7.68 -3 7 C-2.06421005 4.64018187 -1.06652192 2.30368736 0 0 Z " fill="#FB567F" transform="translate(236,173)"/>
<path d="M0 0 C4.04752657 0.04737027 5.4516 0.18191764 8.9375 2.4375 C11.14370285 6.01307013 11.15488369 8.24518637 10.75 12.375 C9.76 12.87 9.76 12.87 8.75 13.375 C8.42 10.405 8.09 7.435 7.75 4.375 C7.09 4.375 6.43 4.375 5.75 4.375 C5.75 5.035 5.75 5.695 5.75 6.375 C-1.18 5.88 -1.18 5.88 -8.25 5.375 C-5.64891072 0.17282145 -5.5501406 0.19291933 0 0 Z " fill="#A27869" transform="translate(240.25,245.625)"/>
<path d="M0 0 C1.32 0.33 2.64 0.66 4 1 C4.66 4.63 5.32 8.26 6 12 C10.19895255 13.04973814 12.79405774 12.72795155 17 12 C17.6875 14.3125 17.6875 14.3125 18 17 C16.5625 18.8125 16.5625 18.8125 15 20 C14.2265625 19.566875 14.2265625 19.566875 13.4375 19.125 C10.37643275 17.71219973 7.25055082 16.8751483 4 16 C3.96261719 15.22914063 3.92523438 14.45828125 3.88671875 13.6640625 C3.82097656 12.66117188 3.75523437 11.65828125 3.6875 10.625 C3.62949219 9.62726563 3.57148438 8.62953125 3.51171875 7.6015625 C3.34285156 6.74304688 3.17398438 5.88453125 3 5 C2.01 4.34 1.02 3.68 0 3 C0 2.01 0 1.02 0 0 Z " fill="#DD3657" transform="translate(143,243)"/>
<path d="M0 0 C2.15377564 2.62198774 3.40072174 4.64404172 4 8 C6.64 8.33 9.28 8.66 12 9 C12.33 8.34 12.66 7.68 13 7 C11.02 7.33 9.04 7.66 7 8 C7 7.01 7 6.02 7 5 C10.37097383 3.50178941 12.20442119 3 16 3 C16.3125 5.75 16.3125 5.75 16 9 C13.9375 11.4375 13.9375 11.4375 11 13 C6.75354391 13.07449923 4.779743 12.67977595 1.5625 9.875 C-0.34690605 6.36169288 -0.30912975 3.94140436 0 0 Z " fill="#FEDCE4" transform="translate(149,207)"/>
<path d="M0 0 C1.875 0.3125 1.875 0.3125 4 1 C6.11297278 4.16945916 6.39695685 6.33232265 6.78125 10.05859375 C7.01138294 12.10102356 7.42458307 14.02714196 8 16 C5.125 15.6875 5.125 15.6875 2 15 C-0.35119399 11.47320901 -0.21443452 9.97120515 -0.125 5.8125 C-0.10695313 4.72582031 -0.08890625 3.63914063 -0.0703125 2.51953125 C-0.04710938 1.68808594 -0.02390625 0.85664063 0 0 Z " fill="#FA2654" transform="translate(128,161)"/>
<path d="M0 0 C1.14224223 2.28448446 2.27290907 4.57062806 3.375 6.875 C4.8688598 10.04941666 4.8688598 10.04941666 7.1875 12.5 C10.09379815 18.11216194 9.74586942 23.8107182 9 30 C7.9574455 32.83556848 6.84732969 34.57537978 5 37 C4.67 36.34 4.34 35.68 4 35 C4.66123428 33.33117063 5.32880571 31.66484847 6 30 C7.41948437 21.34491391 5.42626576 15.82997091 0.53125 8.69140625 C-1.1184242 5.79185134 -1.41582698 4.27463749 -1 1 C-0.67 0.67 -0.34 0.34 0 0 Z " fill="#FEC6D4" transform="translate(208,105)"/>
<path d="M0 0 C1.32 0 2.64 0 4 0 C5.32229189 2.64458379 5.09677194 4.67761301 5.0625 7.625 C5.05347656 8.62789062 5.04445312 9.63078125 5.03515625 10.6640625 C5.02355469 11.43492187 5.01195312 12.20578125 5 13 C3.02 13.99 3.02 13.99 1 15 C-1.66248083 12.33751917 -1.71832705 10.73216655 -2 7 C-1.0625 3.125 -1.0625 3.125 0 0 Z " fill="#FA164B" transform="translate(195,159)"/>
<path d="M0 0 C0.33 2.31 0.66 4.62 1 7 C-2 9 -2 9 -4.6875 8.625 C-5.450625 8.41875 -6.21375 8.2125 -7 8 C-7 5.69 -7 3.38 -7 1 C-4.50935112 0.31292445 -2.62113708 0 0 0 Z " fill="#FB2A5E" transform="translate(239,203)"/>
<path d="M0 0 C2.31 0.66 4.62 1.32 7 2 C7.125 4.375 7.125 4.375 7 7 C6.34 7.66 5.68 8.32 5 9 C0.44444444 8.44444444 0.44444444 8.44444444 -1 7 C-1.125 4 -1.125 4 -1 1 C-0.67 0.67 -0.34 0.34 0 0 Z " fill="#FB255A" transform="translate(155,203)"/>
<path d="M0 0 C2 2 2 2 3.1171875 4.828125 C5.66893099 9.12691279 8.75384749 10.54521833 13.125 12.75 C14.5883753 13.51095516 16.0494448 14.27636629 17.5078125 15.046875 C18.15379395 15.37526367 18.79977539 15.70365234 19.46533203 16.04199219 C21 17 21 17 22 19 C5.56234549 14.22025649 5.56234549 14.22025649 1.4375 7.4375 C0 4 0 4 0 0 Z " fill="#FDBECE" transform="translate(228,223)"/>
<path d="M0 0 C1.64453125 1.23046875 1.64453125 1.23046875 3 3 C3.29296875 5.26171875 3.29296875 5.26171875 3.1875 7.6875 C3.16042969 8.49574219 3.13335937 9.30398437 3.10546875 10.13671875 C3.07066406 10.75160156 3.03585938 11.36648437 3 12 C0.20766929 9.44722581 -0.48967606 7.77639718 -1 4 C-2.32 4 -3.64 4 -5 4 C-5.66 5.98 -6.32 7.96 -7 10 C-7.33 10 -7.66 10 -8 10 C-8.36272727 3.59181818 -8.36272727 3.59181818 -6.8125 1.0625 C-4.33950907 -0.38718434 -2.82115488 -0.42317323 0 0 Z " fill="#FED3DE" transform="translate(241,170)"/>
<path d="M0 0 C1.32 0 2.64 0 4 0 C4.1875 2.875 4.1875 2.875 4 6 C1 8 1 8 -1.1875 7.625 C-1.785625 7.41875 -2.38375 7.2125 -3 7 C-2.25 2.25 -2.25 2.25 0 0 Z " fill="#D04258" transform="translate(227,256)"/>
<path d="M0 0 C0.66 0.33 1.32 0.66 2 1 C2 2.32 2 3.64 2 5 C1.34 5 0.68 5 0 5 C-0.144375 5.804375 -0.28875 6.60875 -0.4375 7.4375 C-1 10 -1 10 -2 11 C-4.33297433 11.04092937 -6.66705225 11.04241723 -9 11 C-9.33 10.01 -9.66 9.02 -10 8 C-10.66 8 -11.32 8 -12 8 C-11.67 7.01 -11.34 6.02 -11 5 C-10.62875 5.515625 -10.2575 6.03125 -9.875 6.5625 C-7.96826848 8.36319983 -7.96826848 8.36319983 -4.8125 7.6875 C-3.4203125 7.3471875 -3.4203125 7.3471875 -2 7 C-1.34 4.69 -0.68 2.38 0 0 Z " fill="#FEF0F3" transform="translate(241,203)"/>
<path d="M0 0 C-0.37392721 2.71097227 -0.81357627 3.82000467 -2.8125 5.75 C-5 7 -5 7 -9 7 C-8.62607279 4.28902773 -8.18642373 3.17999533 -6.1875 1.25 C-4 0 -4 0 0 0 Z " fill="#EB2854" transform="translate(168,243)"/>
<path d="M0 0 C0.763125 0.20625 1.52625 0.4125 2.3125 0.625 C1.3125 3.625 1.3125 3.625 -2 5.375 C-6.66313098 6.95572237 -6.66313098 6.95572237 -9.6875 5.625 C-8.3675 5.295 -7.0475 4.965 -5.6875 4.625 C-5.6875 3.635 -5.6875 2.645 -5.6875 1.625 C-2.6875 -0.375 -2.6875 -0.375 0 0 Z " fill="#FCB0C4" transform="translate(224.6875,184.375)"/>
<path d="M0 0 C1.08667969 0.01804688 2.17335937 0.03609375 3.29296875 0.0546875 C4.54013672 0.08949219 4.54013672 0.08949219 5.8125 0.125 C5.8125 0.785 5.8125 1.445 5.8125 2.125 C5.05324219 2.15078125 4.29398438 2.1765625 3.51171875 2.203125 C2.51785156 2.25984375 1.52398437 2.3165625 0.5 2.375 C-0.48613281 2.42140625 -1.47226563 2.4678125 -2.48828125 2.515625 C-5.80447245 3.26428756 -6.38588332 4.35328203 -8.1875 7.125 C-8.8475 7.125 -9.5075 7.125 -10.1875 7.125 C-9.875 4.75 -9.875 4.75 -9.1875 2.125 C-5.66070901 -0.22619399 -4.15870515 -0.08943452 0 0 Z " fill="#D13E57" transform="translate(240.1875,243.875)"/>
<path d="M0 0 C0.83681551 2.36400381 1.21168789 3.51556041 0.1875 5.859375 C-0.204375 6.48328125 -0.59625 7.1071875 -1 7.75 C-3.46788844 12.24628991 -3.05839331 15.06083121 -2 20 C-5 18 -5 18 -6.0625 14.5 C-6.65613911 8.73322011 -3.19416847 4.51812815 0 0 Z " fill="#FDB4C6" transform="translate(170,124)"/>
<path d="M0 0 C0 1.65 0 3.3 0 5 C-2.64 5 -5.28 5 -8 5 C-8 3.68 -8 2.36 -8 1 C-5.29120665 -0.35439668 -2.99066732 -0.06501451 0 0 Z " fill="#8A8767" transform="translate(140,246)"/>
<path d="M0 0 C2.97 0.33 5.94 0.66 9 1 C9 1.66 9 2.32 9 3 C9.66 3.33 10.32 3.66 11 4 C10.67 4.33 10.34 4.66 10 5 C8.30858344 4.91036938 6.62040398 4.75422324 4.9375 4.5625 C3.55884766 4.40974609 3.55884766 4.40974609 2.15234375 4.25390625 C1.44207031 4.17011719 0.73179687 4.08632813 0 4 C0 2.68 0 1.36 0 0 Z " fill="#6EA16A" transform="translate(243,260)"/>
<path d="M0 0 C0.28875 0.598125 0.5775 1.19625 0.875 1.8125 C2.04742026 4.19327792 2.04742026 4.19327792 4 7 C3.01 7.66 2.02 8.32 1 9 C1 8.34 1 7.68 1 7 C0.01 7 -0.98 7 -2 7 C-2 6.34 -2 5.68 -2 5 C-2.99 4.67 -3.98 4.34 -5 4 C-5 3.01 -5 2.02 -5 1 C-3.68 1.33 -2.36 1.66 -1 2 C-0.67 1.34 -0.34 0.68 0 0 Z " fill="#FDB0C3" transform="translate(238,196)"/>
<path d="M0 0 C3.3 0 6.6 0 10 0 C10.33 0.99 10.66 1.98 11 3 C7.04 3 3.08 3 -1 3 C-0.67 2.01 -0.34 1.02 0 0 Z " fill="#7A9569" transform="translate(233,248)"/>
<path d="M0 0 C3.3 0.99 6.6 1.98 10 3 C10 3.66 10 4.32 10 5 C6.37 4.67 2.74 4.34 -1 4 C-0.67 2.68 -0.34 1.36 0 0 Z " fill="#6DA26C" transform="translate(144,260)"/>
<path d="M0 0 C-0.33 1.65 -0.66 3.3 -1 5 C-2.32 5 -3.64 5 -5 5 C-5 4.34 -5 3.68 -5 3 C-5.66 3 -6.32 3 -7 3 C-7 2.34 -7 1.68 -7 1 C-3.375 -1.125 -3.375 -1.125 0 0 Z " fill="#E82B55" transform="translate(161,256)"/>
<path d="M0 0 C5.445 1.485 5.445 1.485 11 3 C11 3.99 11 4.98 11 6 C10.01 6 9.02 6 8 6 C8 5.34 8 4.68 8 4 C5.03 3.67 2.06 3.34 -1 3 C-0.67 2.01 -0.34 1.02 0 0 Z " fill="#A37467" transform="translate(244,257)"/>
<path d="M0 0 C0.6875 1.8125 0.6875 1.8125 1 4 C0.0625 5.75 0.0625 5.75 -2 7 C-4.71896511 7.2515578 -7.25811768 7.13484667 -10 7 C-10.33 5.68 -10.66 4.36 -11 3 C-10.01 3.495 -10.01 3.495 -9 4 C-6.6670134 4.04022391 -4.33293334 4.04320247 -2 4 C-1.34 2.68 -0.68 1.36 0 0 Z " fill="#FC5B83" transform="translate(241,209)"/>
<path d="M0 0 C2.97 0 5.94 0 9 0 C8.67 0.99 8.34 1.98 8 3 C5.36 3.33 2.72 3.66 0 4 C0 2.68 0 1.36 0 0 Z " fill="#DD3657" transform="translate(132,243)"/>
<path d="M0 0 C1.32 0.33 2.64 0.66 4 1 C3.67 3.64 3.34 6.28 3 9 C2.34 8.67 1.68 8.34 1 8 C0.40644386 5.35139573 0.25790731 2.70802678 0 0 Z " fill="#FEEAEF" transform="translate(154,175)"/>
<path d="M0 0 C4.875 1.75 4.875 1.75 6 4 C6.04022391 6.3329866 6.04320247 8.66706666 6 11 C5.01 11.495 5.01 11.495 4 12 C3.87882813 11.38511719 3.75765625 10.77023437 3.6328125 10.13671875 C3.46523437 9.32847656 3.29765625 8.52023438 3.125 7.6875 C2.96257812 6.88699219 2.80015625 6.08648437 2.6328125 5.26171875 C2.05521001 2.74698882 2.05521001 2.74698882 0 0 Z " fill="#EDD2D4" transform="translate(245,247)"/>
<path d="M0 0 C0.99 0 1.98 0 3 0 C2.25 6.75 2.25 6.75 0 9 C-0.87890625 2.84765625 -0.87890625 2.84765625 -1 1 C-0.67 0.67 -0.34 0.34 0 0 Z " fill="#FEE9EE" transform="translate(237,175)"/>
<path d="M0 0 C1.65 0 3.3 0 5 0 C5.99 2.31 6.98 4.62 8 7 C7.34 7.66 6.68 8.32 6 9 C5.34 7.02 4.68 5.04 4 3 C2.68 3 1.36 3 0 3 C0 2.01 0 1.02 0 0 Z " fill="#FB4D78" transform="translate(153,173)"/>
<path d="M0 0 C0.33 0.66 0.66 1.32 1 2 C1.66 2.33 2.32 2.66 3 3 C3 3.99 3 4.98 3 6 C5.97 6.495 5.97 6.495 9 7 C7.68 7.33 6.36 7.66 5 8 C5 8.66 5 9.32 5 10 C2 9 2 9 0.8125 7.25 C-0.10819096 4.70039426 -0.14948718 2.69076919 0 0 Z " fill="#FEC3D1" transform="translate(228,209)"/>
<path d="M0 0 C1.65 0.33 3.3 0.66 5 1 C5.33 2.32 5.66 3.64 6 5 C5.236875 4.814375 4.47375 4.62875 3.6875 4.4375 C0.91032625 3.77180827 0.91032625 3.77180827 -2 5 C-2 4.01 -2 3.02 -2 2 C-1.34 2 -0.68 2 0 2 C0 1.34 0 0.68 0 0 Z " fill="#FEF5F7" transform="translate(157,194)"/>
<path d="M0 0 C0.04125 0.61875 0.0825 1.2375 0.125 1.875 C0.41375 2.57625 0.7025 3.2775 1 4 C3.99615946 5.3045656 3.99615946 5.3045656 7 6 C6.67 6.66 6.34 7.32 6 8 C3.69 7.67 1.38 7.34 -1 7 C-0.67 4.69 -0.34 2.38 0 0 Z " fill="#E4395D" transform="translate(251,253)"/>
<path d="M0 0 C1.65 0.33 3.3 0.66 5 1 C5 1.66 5 2.32 5 3 C4.34 3 3.68 3 3 3 C3.33 3.99 3.66 4.98 4 6 C2.35 5.67 0.7 5.34 -1 5 C-0.67 3.35 -0.34 1.7 0 0 Z " fill="#FDDFE7" transform="translate(164,170)"/>
<path d="M0 0 C0.33 0.99 0.66 1.98 1 3 C-0.80126705 5.27528469 -1.6366157 5.94682181 -4.5625 6.375 C-5.7690625 6.189375 -5.7690625 6.189375 -7 6 C-7.66 5.01 -8.32 4.02 -9 3 C-6.36 3 -3.72 3 -1 3 C-0.67 2.01 -0.34 1.02 0 0 Z " fill="#FB4F79" transform="translate(163,211)"/>
<path d="M0 0 C2.64 0 5.28 0 8 0 C8.66 1.32 9.32 2.64 10 4 C6.7 3.01 3.4 2.02 0 1 C0 0.67 0 0.34 0 0 Z " fill="#997763" transform="translate(146,260)"/>
<path d="M0 0 C2.31 0 4.62 0 7 0 C7 0.99 7 1.98 7 3 C4.69 3 2.38 3 0 3 C0 2.01 0 1.02 0 0 Z " fill="#EA2753" transform="translate(265,245)"/>
<path d="M0 0 C1.32 0 2.64 0 4 0 C3.25 1.9375 3.25 1.9375 2 4 C-0.125 4.75 -0.125 4.75 -2 5 C-1.125 1.125 -1.125 1.125 0 0 Z " fill="#CE425A" transform="translate(163,245)"/>
<path d="M0 0 C1.65 0 3.3 0 5 0 C4.67 1.32 4.34 2.64 4 4 C2.68 4.33 1.36 4.66 0 5 C0 3.35 0 1.7 0 0 Z " fill="#FC527B" transform="translate(195,176)"/>
<path d="M0 0 C1 2 1 2 0.44140625 3.9453125 C0.15136719 4.66460937 -0.13867188 5.38390625 -0.4375 6.125 C-0.72496094 6.84945312 -1.01242188 7.57390625 -1.30859375 8.3203125 C-1.53675781 8.87460938 -1.76492187 9.42890625 -2 10 C-2.33 10 -2.66 10 -3 10 C-3.29296875 3.9453125 -3.29296875 3.9453125 -3 2 C-2.01 1.34 -1.02 0.68 0 0 Z " fill="#FEF4F6" transform="translate(153,171)"/>
<path d="M0 0 C1.9375 0.375 1.9375 0.375 4 1 C4.33 1.66 4.66 2.32 5 3 C3.125 4.0625 3.125 4.0625 1 5 C0.34 4.67 -0.32 4.34 -1 4 C-0.67 2.68 -0.34 1.36 0 0 Z " fill="#FEC5D4" transform="translate(169,184)"/>
<path d="M0 0 C0.598125 0.639375 1.19625 1.27875 1.8125 1.9375 C3.90810337 4.20310389 3.90810337 4.20310389 7 5 C7 5.66 7 6.32 7 7 C4.625 6.6875 4.625 6.6875 2 6 C0 3 0 3 0 0 Z " fill="#FD9BB3" transform="translate(140,166)"/>
<path d="M0 0 C0.99 0 1.98 0 3 0 C3 3.63 3 7.26 3 11 C2.67 11 2.34 11 2 11 C1.34 7.37 0.68 3.74 0 0 Z " fill="#FEE8ED" transform="translate(214,121)"/>
<path d="M0 0 C1.98 0 3.96 0 6 0 C6 0.99 6 1.98 6 3 C4.68 3.33 3.36 3.66 2 4 C1.34 2.68 0.68 1.36 0 0 Z " fill="#DC3551" transform="translate(122,247)"/>
<path d="M0 0 C6.75 0.75 6.75 0.75 9 3 C6 4 6 4 2.8125 2.5625 C1.884375 2.046875 0.95625 1.53125 0 1 C0 0.67 0 0.34 0 0 Z " fill="#FED9E2" transform="translate(233,234)"/>
<path d="M0 0 C0.99 0.33 1.98 0.66 3 1 C2.54625 1.5775 2.0925 2.155 1.625 2.75 C0.15886484 4.7800333 -0.94857784 6.73539843 -2 9 C-2.125 5.625 -2.125 5.625 -2 2 C-1.34 1.34 -0.68 0.68 0 0 Z " fill="#FEEBEF" transform="translate(235,171)"/>
</svg>
